<svg width="91" height="91" viewBox="0 0 91 91" fill="none" xmlns="http://www.w3.org/2000/svg">
<g clip-path="url(#clip0)">
<path d="M41.2656 41.8311C46.2206 41.8311 50.2525 37.7999 50.2525 32.8449C50.2525 27.8892 46.2206 23.8579 41.2656 23.8579C36.3106 23.8579 32.2794 27.8892 32.2794 32.8449C32.2794 37.7999 36.3106 41.8311 41.2656 41.8311ZM41.2656 29.1286C43.3149 29.1286 44.9819 30.7956 44.9819 32.8449C44.9819 34.8935 43.3149 36.5604 41.2656 36.5604C39.217 36.5604 37.55 34.8935 37.55 32.8449C37.55 30.7956 39.217 29.1286 41.2656 29.1286Z" fill="white"/>
<path d="M87.192 7.02396H3.80801C1.9969 7.02396 0.523438 8.49742 0.523438 10.3085V80.8877C0.523438 82.6989 1.9969 84.1723 3.80801 84.1723H87.192C89.0031 84.1723 90.4766 82.6989 90.4766 80.8877V10.3085C90.4766 8.49742 89.0031 7.02396 87.192 7.02396ZM85.2059 12.2946V54.0045L68.6293 37.4272C67.5484 36.3484 65.7908 36.349 64.7106 37.4293L41.2663 60.8735L26.2908 45.8987C25.7672 45.3744 25.0706 45.0855 24.3294 45.0855C23.5889 45.0855 22.893 45.3737 22.3694 45.8974L5.79413 62.4726V12.2946H85.2059ZM5.79413 78.9016V69.9264L24.3294 51.3911L39.3042 66.3659C39.8285 66.8902 40.5251 67.1798 41.2663 67.1798C42.0061 67.1798 42.7027 66.8909 43.2256 66.3673L66.6706 42.9223L85.2066 61.4583V78.9016H5.79413Z" fill="white"/>
</g>
<defs>
<clipPath id="clip0">
<rect x="0.523438" y="0.523438" width="89.9531" height="89.9531" fill="white"/>
</clipPath>
</defs>
</svg>
